Coordinates
version=1
nRows=22
nColumns=24
inDegrees=yes

Units are S.I. units (second, meters, Newtons, ...)
Angles are in degrees.

endheader
time	pelvis_tilt	pelvis_list	pelvis_rotation	pelvis_tx	pelvis_ty	pelvis_tz	hip_flexion_r	hip_adduction_r	hip_rotation_r	knee_angle_r	ankle_angle_r	subtalar_angle_r	mtp_angle_r	hip_flexion_l	hip_adduction_l	hip_rotation_l	knee_angle_l	ankle_angle_l	subtalar_angle_l	mtp_angle_l	lumbar_extension	lumbar_bending	lumbar_rotation
      5.71000000	     11.71573876	     -2.77795104	     -4.19619298	      1.68606339	      0.73332218	     -0.29234152	    -26.84421733	      1.65286198	     -2.77404925	    -20.07179389	     30.13708928	     28.56140575	      0.00000000	     15.21036837	     -0.57523462	     -4.43825011	    -12.92111997	     13.42801607	      0.31943706	      0.00000000	    -32.09247328	      2.32603022	     15.10644257
      5.71500000	     11.78783398	     -2.20006874	     -4.16780059	      1.69428820	      0.73334010	     -0.29285118	    -26.56889022	      0.92928580	     -2.99129842	    -21.94139244	     29.13404891	     28.67008120	      0.00000000	     15.18816089	      0.15831191	     -4.03444297	    -14.01231316	     12.85665868	     -0.50409110	      0.00000000	    -32.08130125	      1.72280260	     14.98446952
      5.72000000	     11.87473060	     -1.58348459	     -4.10462600	      1.70250285	      0.73348451	     -0.29339789	    -26.23227147	      0.18732333	     -3.20553644	    -23.91942263	     27.91764772	     28.69347697	      0.00000000	     15.14236130	      0.94288647	     -3.63219549	    -15.16255895	     12.34184607	     -1.28449824	      0.00000000	    -32.09467943	      1.10587484	     14.76147275
      5.72500000	     11.97613381	     -0.94505824	     -4.00310546	      1.71070031	      0.73375090	     -0.29398031	    -25.84186587	     -0.55631646	     -3.44365589	    -25.98260420	     26.46455230	     28.59257930	      0.00000000	     15.06974352	      1.76004747	     -3.25370811	    -16.34883362	     11.91633811	     -1.97074288	      0.00000000	    -32.13448923	      0.49139652	     14.49252803
      5.73000000	     12.08135280	     -0.29524476	     -3.86871964	      1.71888431	      0.73412511	     -0.29459442	    -25.38418966	     -1.29483757	     -3.68277156	    -28.12896421	     24.77025871	     28.41876507	      0.00000000	     14.95535531	      2.60323658	     -2.84875092	    -17.50930734	     11.60460129	     -2.62050276	      0.00000000	    -32.18896922	     -0.11262468	     14.16173488
      5.73500000	     12.18754776	      0.36784904	     -3.70689598	      1.72701126	      0.73460361	     -0.29519981	    -24.85206161	     -2.02566462	     -3.92905802	    -30.35047318	     22.91292448	     28.04965978	      0.00000000	     14.80765433	      3.45648137	     -2.51289978	    -18.63545427	     11.36254940	     -3.10751078	      0.00000000	    -32.26259779	     -0.71696941	     13.79891197
      5.74000000	     12.30037363	      1.01433020	     -3.54328879	      1.73510697	      0.73521104	     -0.29577182	    -24.26020194	     -2.72875433	     -4.11375691	    -32.60964488	     20.80554064	     27.56294688	      0.00000000	     14.58359748	      4.28072113	     -2.24908658	    -19.65390276	     11.28467187	     -3.36249546	      0.00000000	    -32.35637405	     -1.29390873	     13.39347324
      5.74500000	     12.36250423	      1.67914985	     -3.33520002	      1.74313377	      0.73581747	     -0.29643437	    -23.54106426	     -3.44699168	     -4.39466778	    -34.93043039	     18.67393852	     26.90595970	      0.00000000	     14.37752616	      5.16039926	     -1.85228665	    -20.61262913	     11.25072909	     -3.84104606	      0.00000000	    -32.40771174	     -1.85538756	     12.98737269
      5.75000000	     12.46450982	      2.31943222	     -3.16555262	      1.75115116	      0.73658420	     -0.29701266	    -22.81539452	     -4.15156801	     -4.57379924	    -37.22059430	     16.36209386	     26.22373733	      0.00000000	     14.03944291	      5.98121109	     -1.61512488	    -21.42505063	     11.45177893	     -3.92234653	      0.00000000	    -32.50790699	     -2.40523984	     12.59016844
      5.75500000	     12.45502908	      2.94388244	     -2.93285202	      1.75901286	      0.73728968	     -0.29764430	    -21.88030354	     -4.80183686	     -4.78629592	    -39.58945967	     14.19265700	     25.12932130	      0.00000000	     13.76072401	      6.81259809	     -1.24336162	    -22.09598032	     11.58863485	     -4.26302228	      0.00000000	    -32.51428482	     -2.89156992	     12.10903351
      5.76000000	     12.45455642	      3.54516850	     -2.73079751	      1.76684469	      0.73808292	     -0.29822119	    -20.91375888	     -5.44286722	     -4.93389787	    -41.89964926	     12.03761055	     24.01101034	      0.00000000	     13.40034196	      7.59887080	     -0.95579105	    -22.64758179	     11.89974870	     -4.37836505	      0.00000000	    -32.53183163	     -3.36524823	     11.67191089
      5.76500000	     12.46632221	      4.14251335	     -2.53875991	      1.77461356	      0.73896143	     -0.29877051	    -19.91607432	     -6.09363530	     -5.06991347	    -44.16436528	      9.99819717	     22.85427201	      0.00000000	     12.94549361	      8.36570055	     -0.72923874	    -23.03707560	     12.25366413	     -4.34050826	      0.00000000	    -32.57200112	     -3.83191993	     11.22799433
      5.77000000	     12.36071837	      4.64712981	     -2.34583138	      1.78227760	      0.73975078	     -0.29926951	    -18.73084742	     -6.60691057	     -5.08228984	    -46.40758026	      8.25629220	     21.29168099	      0.00000000	     12.56681155	      9.03093693	     -0.44773762	    -23.33930778	     12.75409604	     -4.38754600	      0.00000000	    -32.48880557	     -4.19956662	     10.83909054
      5.77500000	     12.27750753	      5.15470586	     -2.16704687	      1.78987275	      0.74061343	     -0.29973703	    -17.53286149	     -7.13858286	     -5.08450472	    -48.58338694	      6.76006530	     19.76853161	      0.00000000	     12.09496820	      9.67891497	     -0.26019608	    -23.49876497	     13.28092226	     -4.29453752	      0.00000000	    -32.43796734	     -4.56777730	     10.41812309
      5.78000000	     12.17413420	      5.62346507	     -2.00167103	      1.79741416	      0.74150036	     -0.30015224	    -16.28026600	     -7.62483295	     -5.03969250	    -50.68328048	      5.55836682	     18.15939495	      0.00000000	     11.58066649	     10.27030346	     -0.09248802	    -23.53484690	     13.84468976	     -4.14445969	      0.00000000	    -32.36365969	     -4.90240475	     10.02322945
      5.78500000	     12.06222430	      6.06225728	     -1.84861535	      1.80490600	      0.74241706	     -0.30052513	    -14.99063386	     -8.07399184	     -4.94729001	    -52.69602123	      4.67323616	     16.51234499	      0.00000000	     11.01367107	     10.81426107	      0.04259876	    -23.44928955	     14.42738879	     -3.94313638	      0.00000000	    -32.27937155	     -5.20651222	      9.61897312
      5.79000000	     11.92664415	      6.44857373	     -1.70746480	      1.81232687	      0.74334341	     -0.30086500	    -13.64064537	     -8.46610648	     -4.81758012	    -54.62467667	      4.08464706	     14.81905385	      0.00000000	     10.43100942	     11.28680008	      0.15369638	    -23.28484229	     15.02553114	     -3.67795597	      0.00000000	    -32.16939034	     -5.45987589	      9.26911265
      5.79500000	     11.79542084	      6.81135917	     -1.57632909	      1.81971718	      0.74429688	     -0.30116834	    -12.27635585	     -8.83347688	     -4.66929589	    -56.45110924	      3.79271110	     13.12636738	      0.00000000	      9.79322757	     11.71923080	      0.23779310	    -23.02205620	     15.62382115	     -3.36891752	      0.00000000	    -32.06037017	     -5.69249035	      8.91911817
      5.80000000	     11.66497307	      7.14382620	     -1.45555452	      1.82707716	      0.74527704	     -0.30143482	    -10.89607313	     -9.16197649	     -4.48944136	    -58.16519688	      3.77738799	     11.44217450	      0.00000000	      9.11109431	     12.10517735	      0.29839289	    -22.67420584	     16.20809771	     -3.01832274	      0.00000000	    -31.94872027	     -5.89538465	      8.56251219
      5.80500000	     11.54623754	      7.45346466	     -1.34117177	      1.83443905	      0.74630057	     -0.30166729	     -9.52315144	     -9.46130163	     -4.29358936	    -59.74820911	      3.99693666	      9.79318341	      0.00000000	      8.36370274	     12.45435536	      0.34528463	    -22.22499370	     16.74971488	     -2.64711590	      0.00000000	    -31.84057289	     -6.07413466	      8.18024924
      5.81000000	     11.42176797	      7.70977873	     -1.23741423	      1.84171731	      0.74730235	     -0.30187820	     -8.11575407	     -9.70174393	     -4.07299181	    -61.22777788	      4.42194912	      8.16579541	      0.00000000	      7.62438776	     12.73599335	      0.37994031	    -21.77825683	     17.29985864	     -2.22834843	      0.00000000	    -31.73448135	     -6.20318077	      7.85721031
      5.81500000	     11.35945087	      7.98813498	     -1.11779110	      1.84902075	      0.74838639	     -0.30208480	     -6.79806392	     -9.97010053	     -3.89145101	    -62.54871444	      5.07162354	      6.68449287	      0.00000000	      6.76601340	     13.03764028	      0.43112600	    -21.23158766	     17.71786838	     -1.85771043	      0.00000000	    -31.69341586	     -6.33883712	      7.41606536
